<?xml version="1.0" standalone="no"?>
<!DOCTYPE svg PUBLIC "-//W3C//DTD SVG 20010904//EN"
 "http://www.w3.org/TR/2001/REC-SVG-20010904/DTD/svg10.dtd">
<svg version="1.0" xmlns="http://www.w3.org/2000/svg"
 width="512.000000pt" height="512.000000pt" viewBox="0 0 512.000000 512.000000"
 preserveAspectRatio="xMidYMid meet">
<metadata>
Created by potrace 1.11, written by Peter Selinger 2001-2013
</metadata>
<g transform="translate(0.000000,512.000000) scale(0.100000,-0.100000)"
fill="#000000" stroke="none">
<path d="M415 5110 c-183 -38 -330 -170 -391 -350 -18 -53 -19 -134 -19 -2200
0 -2066 1 -2147 19 -2200 52 -154 168 -274 322 -332 l59 -23 2155 0 2155 0 59
23 c154 58 270 178 322 332 18 53 19 134 19 2200 0 2066 -1 2147 -19 2200 -52
154 -168 274 -322 332 l-59 23 -2130 1 c-1172 1 -2148 -2 -2170 -6z m3495
-871 c110 -24 153 -111 153 -309 0 -132 -22 -239 -79 -384 -169 -425 -485
-824 -842 -1063 -53 -35 -97 -68 -97 -71 0 -4 15 -45 33 -91 33 -84 63 -184
142 -481 83 -310 141 -410 238 -410 77 0 199 96 472 371 91 91 175 168 188
172 15 3 31 -2 48 -16 34 -30 53 -150 36 -239 -44 -237 -315 -540 -619 -692
-209 -104 -436 -130 -580 -66 -176 78 -253 242 -308 665 -46 345 -67 489 -86
581 l-21 101 -56 18 c-153 48 -242 150 -229 262 7 61 32 92 102 128 57 28 67
30 180 30 102 0 127 -3 166 -21 l47 -22 68 82 c180 217 337 511 567 1065 109
262 149 349 169 364 18 14 51 22 110 27 127 11 143 11 198 -1z m-1379 -159
c65 -34 81 -70 75 -165 -6 -94 -35 -197 -72 -251 -19 -28 -32 -68 -45 -139
-24 -141 -55 -258 -179 -680 -249 -848 -329 -1223 -346 -1620 -3 -75 -12 -148
-20 -172 -38 -105 -171 -164 -409 -179 -183 -12 -208 17 -225 256 -20 286 25
615 155 1135 127 504 272 953 419 1298 l16 37 -59 0 c-85 0 -273 -26 -361 -50
-113 -31 -245 -100 -335 -175 -104 -86 -127 -98 -158 -84 -30 14 -63 71 -71
124 -10 58 10 169 41 232 63 129 213 228 470 312 240 79 633 137 941 140 105
1 128 -2 163 -19z"/>
</g>
</svg>
